<!-- icon666.com - MILLIONS vector ICONS FREE --><svg  id="Flat" viewBox="0 0 64 64" xmlns="http://www.w3.org/2000/svg"><path d="m12 45 15.29-25.18a2 2 0 0 1 3.42 0l15.29 25.18z" fill="#8fa8b8"></path><path d="m30 19.13a1.88 1.88 0 0 0 -.71.69l-15.29 25.18h32l-15.29-25.18a1.88 1.88 0 0 0 -.71-.69z" fill="#7896aa"></path><path d="m29 26.75 3.83 2.25 2.17-2.06-4.32-7.12a2 2 0 0 0 -3.42 0l-4.26 7.12 2.17 2.06z" fill="#f0fbff"></path><path d="m25.17 29 3.83-2.25 3.83 2.25 2.17-2.06-4.32-7.12a1.88 1.88 0 0 0 -.71-.69 1.88 1.88 0 0 0 -.71.69l-5.05 8.31z" fill="#daf5ff"></path><path d="m63 40.5-14.29-23.5a2 2 0 0 0 -3.42 0l-18.29 30.09h36z" fill="#8fa8b8"></path><path d="m48.71 16.87a2 2 0 0 0 -.71-.69 2 2 0 0 0 -.71.69l-18.29 30.13h34v-6.59z" fill="#7896aa"></path><path d="m47 25.43 4.47 2.63 2.53-2.41-5.33-8.78a2 2 0 0 0 -3.42 0l-5.25 8.78 2.57 2.41z" fill="#f0fbff"></path><path d="m48 16.18a2 2 0 0 0 -.71.69l-6 10 1.29 1.21 4.42-2.65 4.47 2.63 2.53-2.41-5.33-8.78a2 2 0 0 0 -.67-.69z" fill="#daf5ff"></path><path d="m15 37a4 4 0 0 0 -7.39-2.11 6 6 0 0 0 -5.61-3.89 5.55 5.55 0 0 0 -1 .09v13.91h19v-3a5 5 0 0 0 -5-5z" fill="#82d246"></path><path d="m15 37a4 4 0 0 0 -7.39-2.11 6 6 0 0 0 -5.61-3.89 5.55 5.55 0 0 0 -1 .09v2a5.55 5.55 0 0 1 1-.09 6 6 0 0 1 5.61 3.89 4 4 0 0 1 7.39 2.11 5 5 0 0 1 5 5v-2a5 5 0 0 0 -5-5z" fill="#91e957"></path><path d="m63 40v23h-62v-11a110.48 110.48 0 0 0 30.86-5.5 70.14 70.14 0 0 1 31.14-6.5z" fill="#91e957"></path><path d="m31.86 48.5a110.48 110.48 0 0 1 -30.86 5.5v9h62v-21a70.14 70.14 0 0 0 -31.14 6.5z" fill="#82d246"></path><path d="m58 58h-57v-13s5-3 17-3c28 0 40 16 40 16z" fill="#bef878"></path><path d="m58 58h-57v-13s5-3 17-3c28 0 40 16 40 16z" fill="#bef878"></path><path d="m32 12a1 1 0 0 1 -.89-.55l-.11-.21a2.22 2.22 0 0 0 -2-1.24 1 1 0 0 1 0-2 4.24 4.24 0 0 1 3 1.24 4.24 4.24 0 0 1 3-1.24 1 1 0 0 1 0 2 2.22 2.22 0 0 0 -2 1.24l-.11.21a1 1 0 0 1 -.89.55z" fill="#4b5f82"></path><path d="m39 6a1 1 0 0 1 -.89-.55l-.11-.21a2.22 2.22 0 0 0 -2-1.24 1 1 0 0 1 0-2 4.24 4.24 0 0 1 3 1.24 4.24 4.24 0 0 1 3-1.24 1 1 0 0 1 0 2 2.22 2.22 0 0 0 -2 1.24l-.11.21a1 1 0 0 1 -.89.55z" fill="#4b5f82"></path><path d="m23 50c11.38 0 22 4.29 28 13h-50v-6.41c6-4.82 13.77-6.59 22-6.59z" fill="#82d246"></path><path d="m56.2 58h1.8s-12-16-40-16c-12 0-17 3-17 3v2s5-3 17-3c21.81 0 33.91 9.71 38.2 14z" fill="#d2ff9f"></path><path d="m49.45 63h1.55c-6-8.71-16.62-13-28-13-8.23 0-16 1.77-22 6.59v2c6-4.82 13.77-6.59 22-6.59 10.47 0 20.25 3.64 26.45 11z" fill="#91e957"></path><path d="m12 63h51v-5.33s-4-2.67-19-2.67c-14 0-27 5-32 8z" fill="#59b22b"></path><path d="m16 63h47v-3.33s-4-2.67-19-2.67a72.8 72.8 0 0 0 -28 6z" fill="#4b961f"></path><g fill="#ffbe39"><path d="m13 8h-2a1 1 0 0 1 0-2h2a1 1 0 0 1 0 2z"></path><path d="m3 8h-2a1 1 0 0 1 0-2h2a1 1 0 0 1 0 2z"></path><path d="m9.83 5.17a1 1 0 0 1 -.71-.29 1 1 0 0 1 0-1.42l1.42-1.41a1 1 0 0 1 1.46 1.41l-1.46 1.42a1 1 0 0 1 -.71.29z"></path><path d="m2.76 12.24a1 1 0 0 1 -.71-.24 1 1 0 0 1 0-1.41l1.41-1.47a1 1 0 1 1 1.42 1.42l-1.42 1.46a1 1 0 0 1 -.7.24z"></path><path d="m7 4a1 1 0 0 1 -1-1v-2a1 1 0 0 1 2 0v2a1 1 0 0 1 -1 1z"></path><path d="m7 14a1 1 0 0 1 -1-1v-2a1 1 0 0 1 2 0v2a1 1 0 0 1 -1 1z"></path><path d="m4.17 5.17a1 1 0 0 1 -.71-.29l-1.41-1.42a1 1 0 0 1 1.41-1.41l1.42 1.41a1 1 0 0 1 0 1.42 1 1 0 0 1 -.71.29z"></path><path d="m11.24 12.24a1 1 0 0 1 -.7-.29l-1.42-1.41a1 1 0 1 1 1.42-1.42l1.46 1.42a1 1 0 0 1 0 1.46 1 1 0 0 1 -.76.24z"></path></g><circle cx="7" cy="7" fill="#ffdc5d" r="5"></circle><circle cx="6" cy="6" fill="#ffef98" r="1.5"></circle><path d="m61 1a4 4 0 0 0 -3.2 1.62 3 3 0 0 0 -4.8 2.38 1.1 1.1 0 0 0 0 .18 3 3 0 0 0 1 5.82h9v-9.45a4 4 0 0 0 -2-.55z" fill="#f0fbff"></path><path d="m59.8 4.62a3 3 0 0 0 -4.8 2.38 1.1 1.1 0 0 0 0 .18 3 3 0 0 0 -2 2.82 3 3 0 0 0 .14.86 3 3 0 0 0 .86.14h9v-8a4 4 0 0 0 -3.2 1.62z" fill="#daf5ff"></path></svg>