<!-- icon666.com - MILLIONS vector ICONS FREE --><svg width="27rem"  xmlns="http://www.w3.org/2000/svg" xmlns:xlink="http://www.w3.org/1999/xlink" version="1.1" id="two_tone" x="0px" y="0px" viewBox="0 0 64 64" xml:space="preserve"><path fill="#38AAFF" d="M60,51c0,4,3,5,3,5s-3,1-3,5c0-4-3-5-3-5S60,55,60,51z"></path><circle fill="#BFF0FF" cx="55" cy="38" r="2"></circle><circle fill="#BFF0FF" cx="43" cy="24" r="3"></circle><circle fill="#BFF0FF" cx="35" cy="10" r="4"></circle><circle fill="#BFF0FF" cx="22.5" cy="10.5" r="2.5"></circle><path fill="#BFF0FF" d="M16.59,22.04C19.07,22.33,21,24.44,21,27c0,1.36-0.54,2.59-1.41,3.49C18.2,27.87,17.18,25.03,16.59,22.04z"></path><path fill="#BFF0FF" d="M41.5,46c0.85,0,1.65,0.31,2.25,0.83c-1.2-0.12-2.37-0.32-3.53-0.58C40.62,46.09,41.05,46,41.5,46z"></path><path fill="#38AAFF" d="M63,32c0,4.19-0.83,8.18-2.34,11.83C56.54,45.86,51.9,47,47,47c-1.1,0-2.18-0.06-3.25-0.17 c-0.6-0.52-1.4-0.83-2.25-0.83c-0.45,0-0.88,0.09-1.28,0.25h-0.01H40.2c-8.95-2-16.43-7.87-20.61-15.76C20.46,29.59,21,28.36,21,27 c0-2.56-1.93-4.67-4.41-4.96C16.2,20.08,16,18.07,16,16c0-4.19,0.83-8.18,2.34-11.83C22.46,2.14,27.1,1,32,1C49.12,1,63,14.88,63,32 z M57,38c0-1.1-0.9-2-2-2s-2,0.9-2,2s0.9,2,2,2S57,39.1,57,38z M46,24c0-1.66-1.34-3-3-3s-3,1.34-3,3s1.34,3,3,3S46,25.66,46,24z M39,10c0-2.21-1.79-4-4-4s-4,1.79-4,4s1.79,4,4,4S39,12.21,39,10z M25,10.5C25,9.12,23.88,8,22.5,8S20,9.12,20,10.5 s1.12,2.5,2.5,2.5S25,11.88,25,10.5z"></path><circle fill="#60DAFF" cx="29" cy="57" r="2"></circle><path fill="#60DAFF" d="M43.75,46.83c0.77,0.64,1.25,1.6,1.25,2.67c0,1.93-1.57,3.5-3.5,3.5S38,51.43,38,49.5 c0-1.47,0.92-2.74,2.21-3.25h0.01C41.38,46.51,42.55,46.71,43.75,46.83z"></path><circle fill="#60DAFF" cx="12.05" cy="41.09" r="2"></circle><path fill="#60DAFF" d="M19.59,30.49C18.67,31.42,17.4,32,16,32c-2.76,0-5-2.24-5-5s2.24-5,5-5c0.2,0,0.4,0.01,0.59,0.04 C17.18,25.03,18.2,27.87,19.59,30.49z"></path><path fill="#BFF0FF" d="M60.66,43.83C56.01,55.08,44.93,63,32,63C14.88,63,1,49.12,1,32C1,19.78,8.07,9.22,18.34,4.17 C16.83,7.82,16,11.81,16,16c0,2.07,0.2,4.08,0.59,6.04C16.4,22.01,16.2,22,16,22c-2.76,0-5,2.24-5,5s2.24,5,5,5 c1.4,0,2.67-0.58,3.59-1.51c4.18,7.89,11.66,13.76,20.61,15.76h0.01C38.92,46.76,38,48.03,38,49.5c0,1.93,1.57,3.5,3.5,3.5 s3.5-1.57,3.5-3.5c0-1.07-0.48-2.03-1.25-2.67C44.82,46.94,45.9,47,47,47C51.9,47,56.54,45.86,60.66,43.83z M31,57c0-1.1-0.9-2-2-2 s-2,0.9-2,2s0.9,2,2,2S31,58.1,31,57z M14.05,41.09c0-1.1-0.9-2-2-2c-1.11,0-2,0.9-2,2c0,1.11,0.89,2,2,2 C13.15,43.09,14.05,42.2,14.05,41.09z"></path><path fill="#2081F6" d="M37.56,1.49C45.66,6.86,51,16.05,51,26.5c0,7.69-2.9,14.71-7.67,20.02c0.15,0.09,0.29,0.2,0.42,0.31 C44.82,46.94,45.9,47,47,47c4.9,0,9.54-1.14,13.66-3.17C62.17,40.18,63,36.19,63,32C63,16.78,52.03,4.12,37.56,1.49z M55,40 c-1.1,0-2-0.9-2-2c0-1.1,0.9-2,2-2s2,0.9,2,2C57,39.1,56.1,40,55,40z"></path><path fill="#60DAFF" d="M60.66,43.83C56.01,55.08,44.93,63,32,63c-8.12,0-15.51-3.12-21.03-8.22C14.1,55.89,17.48,56.5,21,56.5 c2.2,0,4.34-0.24,6.4-0.69C27.14,56.14,27,56.56,27,57c0,1.1,0.9,2,2,2s2-0.9,2-2c0-0.81-0.49-1.51-1.18-1.82 c3.08-0.95,5.94-2.37,8.51-4.21C38.88,52.17,40.1,53,41.5,53c1.93,0,3.5-1.57,3.5-3.5c0-1.07-0.48-2.03-1.25-2.67 C44.82,46.94,45.9,47,47,47C51.9,47,56.54,45.86,60.66,43.83z"></path><g><path fill="#60DAFF" d="M12.279,15.745C12.194,15.809,12.022,15.974,12.279,15.745L12.279,15.745z"></path><path fill="#60DAFF" d="M14.006,12.903c-0.136-0.272-0.396-0.498-0.819-0.633c-0.738-0.235-1.523,0.154-2.162,0.592 c-1.929,1.322-3.454,3.225-4.324,5.395c-0.14,0.349-0.265,0.714-0.255,1.089c0.024,0.92,1.054,1.692,1.923,1.389 c0.848-0.295,1.186-1.277,1.568-2.09c0.763-1.625,1.962-2.425,3.291-3.513C13.884,14.595,14.353,13.598,14.006,12.903z"></path><path fill="#60DAFF" d="M9.66,19.098c0,0,0,0.001-0.001,0.001C9.616,19.196,9.544,19.44,9.66,19.098z"></path></g><path fill="#2E2442" d="M63.316,55.051C63.293,55.043,61,54.242,61,51c0-0.552-0.447-1-1-1s-1,0.448-1,1 c0,3.188-2.23,4.021-2.316,4.051C56.275,55.188,56,55.569,56,56s0.275,0.812,0.684,0.949C56.707,56.957,59,57.758,59,61 c0,0.552,0.447,1,1,1s1-0.448,1-1c0-3.175,2.213-4.014,2.324-4.054C63.729,56.807,64,56.427,64,56 C64,55.569,63.725,55.188,63.316,55.051z M60,57.269c-0.341-0.532-0.729-0.948-1.104-1.269c0.375-0.32,0.764-0.737,1.104-1.269 c0.341,0.532,0.729,0.948,1.104,1.269C60.729,56.32,60.341,56.737,60,57.269z"></path><path fill="#2E2442" d="M32,0c-4.949,0-9.694,1.101-14.102,3.272C6.858,8.701,0,19.709,0,32c0,17.645,14.355,32,32,32 c13.003,0,24.615-7.767,29.584-19.788C63.187,40.337,64,36.228,64,32C64,14.355,49.645,0,32,0z M32,62C15.458,62,2,48.542,2,32 C2,21.354,7.497,11.744,16.497,6.327C15.507,9.442,15,12.683,15,16c0,1.692,0.139,3.378,0.401,5.03C12.372,21.332,10,23.894,10,27 c0,3.309,2.691,6,6,6c1.218,0,2.351-0.367,3.298-0.993c4.136,7.152,10.823,12.402,18.7,14.702C37.383,47.478,37,48.44,37,49.5 c0,2.481,2.019,4.5,4.5,4.5s4.5-2.019,4.5-4.5c0-0.541-0.111-1.053-0.287-1.534C46.145,47.984,46.577,48,47,48 c4.038,0,7.936-0.745,11.63-2.195C53.5,55.719,43.316,62,32,62z M19.716,28.457c-0.725-1.585-1.309-3.228-1.746-4.917 C19.176,24.23,20,25.514,20,27C20,27.515,19.894,28.004,19.716,28.457z M15.794,23.021c0.559,2.498,1.416,4.912,2.555,7.201 C17.688,30.705,16.88,31,16,31c-2.206,0-4-1.794-4-4C12,24.865,13.685,23.131,15.794,23.021z M43.305,47.779 C43.733,48.228,44,48.832,44,49.5c0,1.378-1.121,2.5-2.5,2.5S39,50.878,39,49.5c0-0.96,0.55-1.785,1.345-2.204 C41.354,47.51,42.345,47.671,43.305,47.779z M59.874,43.09C55.84,45.016,51.512,46,47,46c-0.95,0-1.898-0.051-2.881-0.144 C43.38,45.323,42.479,45,41.5,45c-0.459,0-0.893,0.089-1.311,0.218c-8.241-1.91-15.261-7.215-19.394-14.626 C21.548,29.588,22,28.348,22,27c0-2.805-1.938-5.16-4.543-5.814C17.16,19.487,17,17.748,17,16c0-3.835,0.72-7.564,2.126-11.091 C23.16,2.984,27.488,2,32,2c16.542,0,30,13.458,30,30C62,35.835,61.281,39.563,59.874,43.09z"></path><path fill="#2E2442" d="M43,20c-2.206,0-4,1.794-4,4s1.794,4,4,4s4-1.794,4-4S45.206,20,43,20z M43,26c-1.103,0-2-0.897-2-2 s0.897-2,2-2s2,0.897,2,2S44.103,26,43,26z"></path><path fill="#2E2442" d="M26,10.5C26,8.57,24.43,7,22.5,7S19,8.57,19,10.5s1.57,3.5,3.5,3.5S26,12.43,26,10.5z M22.5,12 c-0.827,0-1.5-0.673-1.5-1.5S21.673,9,22.5,9S24,9.673,24,10.5S23.327,12,22.5,12z"></path><path fill="#2E2442" d="M52,38c0,1.654,1.346,3,3,3s3-1.346,3-3s-1.346-3-3-3S52,36.346,52,38z M56,38c0,0.551-0.448,1-1,1 s-1-0.449-1-1s0.448-1,1-1S56,37.449,56,38z"></path><path fill="#2E2442" d="M12.049,38.094c-1.654,0-3,1.346-3,3s1.346,3,3,3s3-1.346,3-3S13.703,38.094,12.049,38.094z M12.049,42.094 c-0.552,0-1-0.449-1-1s0.448-1,1-1s1,0.449,1,1S12.601,42.094,12.049,42.094z"></path><path fill="#2E2442" d="M29,54c-1.654,0-3,1.346-3,3s1.346,3,3,3s3-1.346,3-3S30.654,54,29,54z M29,58c-0.552,0-1-0.449-1-1 s0.448-1,1-1s1,0.449,1,1S29.552,58,29,58z"></path><path fill="#2E2442" d="M40,10c0-2.757-2.243-5-5-5s-5,2.243-5,5s2.243,5,5,5S40,12.757,40,10z M35,13c-1.654,0-3-1.346-3-3 s1.346-3,3-3s3,1.346,3,3S36.654,13,35,13z"></path><path fill="#2E2442" d="M42.293,34.293L40.086,36.5H37c-0.553,0-1,0.448-1,1s0.447,1,1,1h3.5c0.266,0,0.52-0.105,0.707-0.293 l2.5-2.5c0.391-0.391,0.391-1.023,0-1.414S42.684,33.902,42.293,34.293z"></path><path fill="#2E2442" d="M53,18c0-0.552-0.447-1-1-1s-1,0.448-1,1v3c0,0.265,0.105,0.52,0.293,0.707l2.5,2.5 c0.195,0.195,0.451,0.293,0.707,0.293s0.512-0.098,0.707-0.293c0.391-0.391,0.391-1.023,0-1.414L53,20.586V18z"></path><path fill="#2E2442" d="M9.207,34.793L7,32.586V30c0-0.552-0.447-1-1-1s-1,0.448-1,1v3c0,0.265,0.105,0.52,0.293,0.707l2.5,2.5 C7.988,36.402,8.244,36.5,8.5,36.5s0.512-0.098,0.707-0.293C9.598,35.816,9.598,35.184,9.207,34.793z"></path><path fill="#2E2442" d="M31,21.5h-3.086l-2.207-2.207c-0.391-0.391-1.023-0.391-1.414,0s-0.391,1.023,0,1.414l2.5,2.5 C26.98,23.395,27.234,23.5,27.5,23.5H31c0.553,0,1-0.448,1-1S31.553,21.5,31,21.5z"></path><path fill="#38AAFF" d="M63,32c0,4.19-0.83,8.18-2.34,11.83C56.54,45.86,51.9,47,47,47c-1.1,0-2.18-0.06-3.25-0.17 c-1.2-0.12-2.37-0.32-3.53-0.58h-0.01H40.2c-8.95-2-16.43-7.87-20.61-15.76c-1.39-2.62-2.41-5.46-3-8.45C16.2,20.08,16,18.07,16,16 c0-4.19,0.83-8.18,2.34-11.83C22.46,2.14,27.1,1,32,1C49.12,1,63,14.88,63,32z"></path><path fill="#BFF0FF" d="M47,47c4.9,0,9.54-1.14,13.66-3.17C56.01,55.08,44.93,63,32,63C14.88,63,1,49.12,1,32 C1,19.78,8.07,9.22,18.34,4.17C16.83,7.82,16,11.81,16,16c0,2.07,0.2,4.08,0.59,6.04C16.4,22.01,16.2,22,16,22c-2.76,0-5,2.24-5,5 s2.24,5,5,5c1.4,0,2.67-0.58,3.59-1.51c4.18,7.89,11.66,13.76,20.61,15.76c-1.28,0.52-2.2,1.78-2.2,3.25c0,1.93,1.57,3.5,3.5,3.5 s3.5-1.57,3.5-3.5c0-1.07-0.48-2.03-1.25-2.67C44.82,46.94,45.9,47,47,47z M31,57c0-1.1-0.9-2-2-2s-2,0.9-2,2s0.9,2,2,2 S31,58.1,31,57z M14.05,41.09c0-1.1-0.9-2-2-2c-1.11,0-2,0.9-2,2c0,1.11,0.89,2,2,2C13.15,43.09,14.05,42.2,14.05,41.09z"></path><path fill="#2081F6" d="M63,32c0,4.19-0.83,8.18-2.34,11.83C56.54,45.86,51.9,47,47,47c-1.1,0-2.18-0.06-3.25-0.17 c-1.2-0.12-2.37-0.32-3.53-0.58H40.2c-0.23-0.05-0.47-0.11-0.7-0.17C47.04,40.96,52,32.31,52,22.5c0-7.12-2.61-13.63-6.94-18.62 C55.65,8.81,63,19.55,63,32z"></path><path fill="#60DAFF" d="M47,47c-1.1,0-2.18-0.06-3.25-0.17c0.77,0.64,1.25,1.6,1.25,2.67c0,1.93-1.57,3.5-3.5,3.5S38,51.43,38,49.5 c0-1.47,0.92-2.73,2.2-3.25c-0.23-0.05-0.47-0.11-0.7-0.17C34.94,49.19,29.43,51,23.5,51c-8.26,0-15.69-3.51-20.89-9.13 C6.73,54.15,18.33,63,32,63c12.93,0,24.01-7.92,28.66-19.17C56.54,45.86,51.9,47,47,47z M29,59c-1.1,0-2-0.9-2-2c0-1.1,0.9-2,2-2 s2,0.9,2,2C31,58.1,30.1,59,29,59z"></path><path fill="#38AAFF" d="M45,49.5c0,1.93-1.57,3.5-3.5,3.5S38,51.43,38,49.5c0-1.47,0.92-2.73,2.2-3.25h0.01h0.01 c1.16,0.26,2.33,0.46,3.53,0.58C44.52,47.47,45,48.43,45,49.5z"></path><circle fill="#38AAFF" cx="29" cy="57" r="2"></circle><path fill="#60DAFF" d="M16.59,22.04c0.59,2.99,1.61,5.83,3,8.45C18.67,31.42,17.4,32,16,32c-2.76,0-5-2.24-5-5s2.24-5,5-5 C16.2,22,16.4,22.01,16.59,22.04z"></path><circle fill="#60DAFF" cx="12.05" cy="41.09" r="2"></circle><g><path fill="#60DAFF" d="M11.839,16.776C11.755,16.857,11.588,17.061,11.839,16.776L11.839,16.776z"></path><path fill="#60DAFF" d="M13.361,13.439c-0.184-0.28-0.499-0.494-0.979-0.586c-0.839-0.161-1.648,0.367-2.291,0.93 c-1.94,1.699-3.362,3.981-4.033,6.471c-0.108,0.4-0.197,0.816-0.138,1.226c0.146,1.005,1.374,1.716,2.287,1.271 c0.89-0.433,1.133-1.553,1.445-2.492c0.624-1.879,1.833-2.911,3.147-4.275C13.447,15.308,13.831,14.155,13.361,13.439z"></path><path fill="#60DAFF" d="M9.407,20.789c0,0,0,0.001-0.001,0.001C9.372,20.901,9.325,21.178,9.407,20.789z"></path></g><g><path fill="#2E2442" d="M32,0c-4.949,0-9.694,1.101-14.102,3.272C6.858,8.701,0,19.709,0,32c0,17.645,14.355,32,32,32 c13.003,0,24.615-7.767,29.584-19.788C63.188,40.337,64,36.228,64,32C64,14.355,49.645,0,32,0z M15.794,23.021 c0.56,2.5,1.417,4.915,2.557,7.205C17.664,30.723,16.853,31,16,31c-2.206,0-4-1.794-4-4C12,24.865,13.685,23.131,15.794,23.021z M32,62C15.458,62,2,48.542,2,32C2,21.354,7.497,11.744,16.497,6.327C15.507,9.442,15,12.683,15,16c0,1.692,0.139,3.378,0.401,5.03 C12.372,21.332,10,23.894,10,27c0,3.309,2.691,6,6,6c1.188,0,2.324-0.348,3.3-0.99c4.136,7.15,10.822,12.398,18.696,14.698 C37.374,47.491,37,48.468,37,49.5c0,2.481,2.019,4.5,4.5,4.5s4.5-2.019,4.5-4.5c0-0.534-0.118-1.047-0.297-1.534 C46.139,47.983,46.574,48,47,48c4.038,0,7.936-0.745,11.63-2.195C53.5,55.719,43.316,62,32,62z M43.282,47.776 C43.733,48.236,44,48.846,44,49.5c0,1.378-1.121,2.5-2.5,2.5S39,50.878,39,49.5c0-0.926,0.532-1.779,1.341-2.205 C41.343,47.508,42.327,47.668,43.282,47.776z M59.874,43.09C55.84,45.016,51.512,46,47,46c-1.038,0-2.068-0.054-3.15-0.165 c-1.1-0.11-2.25-0.299-3.421-0.561c-0.02-0.004-0.039-0.008-0.06-0.011c-8.531-1.922-15.781-7.475-19.896-15.242 c-1.362-2.568-2.339-5.319-2.903-8.176C17.192,19.94,17,17.974,17,16c0-3.835,0.72-7.564,2.126-11.091C23.16,2.984,27.488,2,32,2 c16.542,0,30,13.458,30,30C62,35.835,61.281,39.563,59.874,43.09z"></path><path fill="#2E2442" d="M12.049,38.094c-1.654,0-3,1.346-3,3s1.346,3,3,3s3-1.346,3-3S13.703,38.094,12.049,38.094z M12.049,42.094 c-0.552,0-1-0.449-1-1s0.448-1,1-1s1,0.449,1,1S12.601,42.094,12.049,42.094z"></path><path fill="#2E2442" d="M29,54c-1.654,0-3,1.346-3,3s1.346,3,3,3s3-1.346,3-3S30.654,54,29,54z M29,58c-0.552,0-1-0.449-1-1 s0.448-1,1-1s1,0.449,1,1S29.552,58,29,58z"></path><path fill="#2E2442" d="M9.207,34.793L7,32.586V30c0-0.552-0.447-1-1-1s-1,0.448-1,1v3c0,0.265,0.105,0.52,0.293,0.707l2.5,2.5 C7.988,36.402,8.244,36.5,8.5,36.5s0.512-0.098,0.707-0.293C9.598,35.816,9.598,35.184,9.207,34.793z"></path></g></svg>