<!-- icon666.com - MILLIONS vector ICONS FREE --><svg version="1.1" id="Layer_1" xmlns="http://www.w3.org/2000/svg" xmlns:xlink="http://www.w3.org/1999/xlink" x="0px" y="0px" viewBox="0 0 512 512" style="enable-background:new 0 0 512 512;" xml:space="preserve"><circle style="fill:#5A5AB4;" cx="256" cy="256" r="256"></circle><path style="fill:#6464C8;" d="M347.378,16.858C206.801,27.409,96,144.724,96,288c0,90.01,43.749,169.773,111.112,219.282 C222.943,510.344,239.275,512,256,512c141.385,0,256-114.615,256-256C512,146.818,443.623,53.659,347.378,16.858z"></path><path style="fill:#7B72BD;" d="M445.837,427.734C486.949,382.316,512,322.086,512,256c0-15.658-1.558-30.933-4.251-45.813 C480.402,161.183,428.104,128,368,128c-88.366,0-160,71.634-160,160c0,88.365,71.634,160,160,160 C396.272,448,422.788,440.602,445.837,427.734z"></path><circle style="fill:#9586B2;" cx="368" cy="288" r="80"></circle><g><path style="fill:#5A5A82;" d="M416,272c-40,0-108,52-120,40s-56-40-71.111-40C209.778,272,176,288,160,288s-32-16-48-16 c-12.475,0-78.436,24.313-106.9,35.027C28.755,423.962,132.09,512,256,512c122.11,0,224.183-85.521,249.763-199.918 C481.273,295.524,441.952,272,416,272z"></path><rect x="281.747" y="204.535" transform="matrix(-0.7071 0.7071 -0.7071 -0.7071 644.5352 158.0942)" style="fill:#5A5A82;" width="15.556" height="16"></rect></g><path style="fill:#8E64A0;" d="M256,200c-26.51,0-48,21.49-48,48v64h96v-64C304,221.49,282.51,200,256,200z"></path><path style="fill:#5A5A82;" d="M304,256h-64v-8c0-20.891,13.369-38.614,32-45.21c-5.011-1.774-10.381-2.79-16-2.79 c-26.51,0-48,21.49-48,48v8v8v48h32v-48h64V256z"></path><rect x="233.78" y="272" style="fill:#9586B2;" width="8.889" height="16"></rect><rect x="251.56" y="272" style="fill:#FFFFFF;" width="8.889" height="16"></rect><rect x="269.33" y="272" style="fill:#FFE1AF;" width="8.889" height="16"></rect><g><circle style="fill:#D75A82;" cx="220" cy="244" r="4"></circle><circle style="fill:#D75A82;" cx="292" cy="244" r="4"></circle></g><path style="fill:#5F5FA5;" d="M434.161,335.042v-11.406c4.318-0.547,7.648-3.916,7.648-10.152c0-6.834-5.455-33.484-8.905-33.484 s-8.905,26.65-8.905,33.484c0,6.236,3.331,9.605,7.649,10.152v9.986c-7.434-4.192-14.076-7.853-19.37-10.639 c2.92-2.34,4.8-6.274,4.8-11.831c0-9.623-7.681-47.153-12.54-47.153S392,301.53,392,311.153c0,2.414,0.365,4.512,1.005,6.317 c-9.702,0.81-26.054,3.298-40.681,3.677v-9.029c6.344-0.804,11.238-5.754,11.238-14.917c0-10.042-8.015-49.202-13.085-49.202 s-13.085,39.16-13.085,49.202c0,9.164,4.895,14.113,11.24,14.917v9.079c-8.991-0.005-17.014-0.975-21.967-3.865 c-16-9.333-49.333-30.667-85.333-30.667c-10.969,0-33.695,6.931-61.769,17.173v-4.021c7.02-0.89,12.435-6.367,12.435-16.505 c0-11.111-8.869-54.441-14.478-54.441s-14.478,43.33-14.478,54.441c0,10.14,5.417,15.616,12.437,16.506v5.521 c-9.896,3.654-20.395,7.685-31.233,11.941v-7.832c6.08-0.771,10.77-5.514,10.77-14.296c0-9.623-7.682-47.153-12.54-47.153 s-12.54,37.53-12.54,47.153c0,8.782,4.691,13.526,10.772,14.296v9.224c-21.66,8.546-44.535,17.915-66.549,26.936v-5.974 c4.318-0.547,7.648-3.916,7.648-10.152c0-6.834-5.455-33.484-8.905-33.484C69.455,296,64,322.65,64,329.484 c0,6.236,3.331,9.605,7.649,10.152v7.003c-16.484,6.755-32.437,13.287-46.971,19.096C65.772,452.205,153.892,512,256,512 c102.05,0,190.13-59.726,231.254-146.118C469.848,355.605,450.354,344.21,434.161,335.042z"></path><path style="fill:#5A5A82;" d="M470.087,396.327C444.129,385.67,419.59,376,416,376c-8,0-32,48-48,48s-104-96-128-96 c-18.717,0-139.601,53.517-191.917,77.08C94.539,469.767,170.28,512,256,512C345.562,512,424.343,465.984,470.087,396.327z"></path><g><circle style="fill:#FFFFFF;" cx="291" cy="115" r="5"></circle><circle style="fill:#FFFFFF;" cx="419" cy="157" r="5"></circle><circle style="fill:#FFFFFF;" cx="381" cy="229" r="5"></circle><circle style="fill:#FFFFFF;" cx="275" cy="67" r="5"></circle><circle style="fill:#FFFFFF;" cx="123" cy="101" r="5"></circle><circle style="fill:#FFFFFF;" cx="157" cy="181" r="5"></circle><circle style="fill:#FFFFFF;" cx="253" cy="139" r="5"></circle><circle style="fill:#FFFFFF;" cx="339" cy="197" r="5"></circle><circle style="fill:#FFFFFF;" cx="75" cy="197" r="5"></circle></g><g style="opacity:0.7;"><circle style="fill:#9FA5EB;" cx="323" cy="91" r="5"></circle></g><g><circle style="fill:#7B72BD;" cx="269" cy="93" r="5"></circle><circle style="fill:#7B72BD;" cx="85" cy="141" r="5"></circle></g><g><circle style="fill:#6464C8;" cx="45" cy="189" r="5"></circle><circle style="fill:#6464C8;" cx="203" cy="29" r="5"></circle></g><g style="opacity:0.7;"><circle style="fill:#9FA5EB;" cx="195" cy="101" r="5"></circle></g><g><circle style="fill:#7B72BD;" cx="61" cy="237" r="5"></circle><circle style="fill:#7B72BD;" cx="203" cy="195" r="5"></circle><circle style="fill:#7B72BD;" cx="389" cy="99" r="5"></circle></g><g><circle style="fill:#9586B2;" cx="389" cy="171" r="5"></circle><circle style="fill:#9586B2;" cx="467" cy="195" r="5"></circle><circle style="fill:#9586B2;" cx="461" cy="243" r="5"></circle><circle style="fill:#9586B2;" cx="339" cy="163" r="5"></circle></g><circle style="fill:#7B72BD;" cx="349" cy="53" r="5"></circle><g style="opacity:0.7;"><circle style="fill:#9FA5EB;" cx="229" cy="99" r="5"></circle></g><g style="opacity:0.7;"><circle style="fill:#9FA5EB;" cx="181" cy="67" r="5"></circle></g><g style="opacity:0.7;"><circle style="fill:#9FA5EB;" cx="189" cy="139" r="5"></circle></g><g style="opacity:0.7;"><circle style="fill:#9FA5EB;" cx="347" cy="107" r="5"></circle></g><g style="opacity:0.7;"><circle style="fill:#9FA5EB;" cx="363" cy="149" r="5"></circle></g><g style="opacity:0.7;"><circle style="fill:#9FA5EB;" cx="483" cy="259" r="5"></circle></g><g style="opacity:0.7;"><circle style="fill:#9FA5EB;" cx="341" cy="229" r="5"></circle></g><g style="opacity:0.7;"><circle style="fill:#9FA5EB;" cx="301" cy="171" r="5"></circle></g><g style="opacity:0.7;"><circle style="fill:#9FA5EB;" cx="451" cy="205" r="5"></circle></g><g style="opacity:0.7;"><circle style="fill:#9FA5EB;" cx="403" cy="245" r="5"></circle></g><g style="opacity:0.7;"><circle style="fill:#9FA5EB;" cx="317" cy="53" r="5"></circle></g></svg>